<?xml version="1.0" encoding="UTF-8"?>
<svg width="18px" height="18px" viewBox="0 0 18 18" version="1.1" xmlns="http://www.w3.org/2000/svg" xmlns:xlink="http://www.w3.org/1999/xlink">
    <!-- Generator: sketchtool 52.6 (67491) - http://www.bohemiancoding.com/sketch -->
    <title>007C8D3F-84F4-41F9-A606-A3BBA4B07524</title>
    <desc>Created with sketchtool.</desc>
    <g id="iphone-UI" stroke="none" stroke-width="1" fill="none" fill-rule="evenodd">
        <g id="05a---Add-Features" transform="translate(-140.000000, -807.000000)">
            <g id="Group-15" transform="translate(126.000000, 209.000000)">
                <g id="Categories-Column" transform="translate(0.000000, 14.000000)">
                    <g id="Categories" transform="translate(0.000000, 52.000000)">
                        <g id="Misc" transform="translate(9.000000, 528.000000)">
                            <g id="Icon_Misc" transform="translate(0.891521, 0.000000)">
                                <path d="M14.0646017,13.2220685 C14.0646017,13.7501146 13.6368916,14.1778247 13.1081131,14.1778247 C12.5807993,14.1778247 12.1523568,13.7501146 12.1523568,13.2220685 C12.1523568,12.6940223 12.5807993,12.2663122 13.1081131,12.2663122 C13.6368916,12.2663122 14.0646017,12.6940223 14.0646017,13.2220685" id="Fill-3" fill="#333B5B"></path>
                                <path d="M17.4762282,13.2220685 C17.4762282,13.7501146 17.0485182,14.1778247 16.5197396,14.1778247 C15.9924258,14.1778247 15.5639834,13.7501146 15.5639834,13.2220685 C15.5639834,12.6940223 15.9924258,12.2663122 16.5197396,12.2663122 C17.0485182,12.2663122 17.4762282,12.6940223 17.4762282,13.2220685" id="Fill-3-Copy" fill="#333B5B"></path>
                                <path d="M10.6529751,13.2220685 C10.6529751,13.7501146 10.2252651,14.1778247 9.69648651,14.1778247 C9.16917272,14.1778247 8.74073026,13.7501146 8.74073026,13.2220685 C8.74073026,12.6940223 9.16917272,12.2663122 9.69648651,12.2663122 C10.2252651,12.2663122 10.6529751,12.6940223 10.6529751,13.2220685" id="Fill-3-Copy-2" fill="#333B5B"></path>
                                <path d="M20.9782872,13.222421 C20.9782872,17.5685659 17.4549767,21.0918764 13.1081267,21.0918764 C8.76198183,21.0918764 5.23867132,17.5685659 5.23867132,13.222421 C5.23867132,8.87627613 8.76198183,5.35226054 13.1081267,5.35226054 C17.4549767,5.35226054 20.9782872,8.87627613 20.9782872,13.222421 Z" id="Stroke-7" stroke="#333B5B"></path>
                                <rect id="Rectangle" fill-rule="nonzero" x="0.608479249" y="0.722068467" width="25" height="25"></rect>
                            </g>
                        </g>
                    </g>
                </g>
            </g>
        </g>
    </g>
</svg>