<?xml version="1.0" encoding="UTF-8"?>
<svg width="15px" height="15px" viewBox="0 0 15 15" version="1.1" xmlns="http://www.w3.org/2000/svg" xmlns:xlink="http://www.w3.org/1999/xlink">
    <!-- Generator: sketchtool 52.6 (67491) - http://www.bohemiancoding.com/sketch -->
    <title>99EC39F2-2010-49B9-9BC5-4257E032DE7D</title>
    <desc>Created with sketchtool.</desc>
    <g id="iphone-UI" stroke="none" stroke-width="1" fill="none" fill-rule="evenodd">
        <g id="05a---Add-Features" transform="translate(-141.000000, -561.000000)">
            <g id="Group-15" transform="translate(126.000000, 209.000000)">
                <g id="Categories-Column" transform="translate(0.000000, 14.000000)">
                    <g id="Categories" transform="translate(0.000000, 52.000000)">
                        <g id="Communication" transform="translate(10.000000, 280.000000)">
                            <g id="Icon_Communication">
                                <path d="M19.4999897,13.4152942 C19.5024751,14.368532 19.2797617,15.3088775 18.8499897,16.1597386 C17.8106824,18.2392531 15.6858674,19.5532835 13.3611008,19.5541831 C12.407863,19.5566684 11.4675175,19.333955 10.6166564,18.9041831 L6.49998971,20.2764053 L7.87221193,16.1597386 C7.44243998,15.3088775 7.21972659,14.368532 7.22221193,13.4152942 C7.2231115,11.0905276 8.53714187,8.96571259 10.6166564,7.92640529 C11.4675175,7.49663334 12.407863,7.27391995 13.3611008,7.27640529 L13.7222119,7.27640529 C16.8391854,7.44836618 19.3280288,9.9372096 19.4999897,13.0541831 L19.4999897,13.4152942 Z" id="Shape" stroke="#333B5B" stroke-linecap="round" stroke-linejoin="round"></path>
                                <rect id="Rectangle" fill-rule="nonzero" x="0.5" y="0.87095814" width="25" height="25"></rect>
                            </g>
                        </g>
                    </g>
                </g>
            </g>
        </g>
    </g>
</svg>