<?xml version="1.0" encoding="UTF-8"?>
<svg width="19px" height="18px" viewBox="0 0 19 18" version="1.1" xmlns="http://www.w3.org/2000/svg" xmlns:xlink="http://www.w3.org/1999/xlink">
    <!-- Generator: sketchtool 52.6 (67491) - http://www.bohemiancoding.com/sketch -->
    <title>AC8BFA5B-6CB3-4764-9880-8CB052C16B11</title>
    <desc>Created with sketchtool.</desc>
    <g id="iphone-UI" stroke="none" stroke-width="1" fill="none" fill-rule="evenodd">
        <g id="05a---Add-Features" transform="translate(-139.000000, -771.000000)">
            <g id="Group-15" transform="translate(126.000000, 209.000000)">
                <g id="Categories-Column" transform="translate(0.000000, 14.000000)">
                    <g id="Categories" transform="translate(0.000000, 52.000000)">
                        <g id="3rd-Party" transform="translate(10.000000, 492.000000)">
                            <g id="Icon_3rdParty">
                                <path d="M14.9099065,9.40142037 C16.8749651,10.2325646 18.2532391,12.1783316 18.2532391,14.4456244 C18.2532391,14.7167779 18.2339475,14.9836443 18.1953644,15.2446161" id="Stroke-1" stroke="#333B5B"></path>
                                <path d="M7.36369583,15.2544762 C7.32457686,14.9902891 7.30421355,14.7207433 7.30421355,14.4458388 C7.30421355,12.1951581 8.66266009,10.2617163 10.6041401,9.4203904" id="Stroke-3" stroke="#333B5B"></path>
                                <path d="M15.9745857,18.8911474 C15.0753852,19.5384861 13.9714799,19.92003 12.779155,19.92003 C11.5841508,19.92003 10.4791737,19.5374143 9.57890147,18.888468" id="Stroke-5" stroke="#333B5B"></path>
                                <path d="M15.4884386,7.97657876 C15.4884386,9.47274552 14.2757505,10.6854337 12.7795837,10.6854337 C11.2839528,10.6854337 10.0712647,9.47274552 10.0712647,7.97657876 C10.0712647,6.480412 11.2839528,5.26772382 12.7795837,5.26772382 C14.2757505,5.26772382 15.4884386,6.480412 15.4884386,7.97657876 Z" id="Stroke-7" stroke="#333B5B"></path>
                                <path d="M9.6853801,17.9532031 C9.6853801,19.4493698 8.47269193,20.662058 6.97652517,20.662058 C5.48089428,20.662058 4.26820611,19.4493698 4.26820611,17.9532031 C4.26820611,16.4570363 5.48089428,15.2443481 6.97652517,15.2443481 C8.47269193,15.2443481 9.6853801,16.4570363 9.6853801,17.9532031 Z" id="Stroke-9" stroke="#333B5B"></path>
                                <path d="M21.2820658,17.9532031 C21.2820658,19.4493698 20.0693776,20.662058 18.5732108,20.662058 C17.07758,20.662058 15.8648918,19.4493698 15.8648918,17.9532031 C15.8648918,16.4570363 17.07758,15.2443481 18.5732108,15.2443481 C20.0693776,15.2443481 21.2820658,16.4570363 21.2820658,17.9532031 Z" id="Stroke-11" stroke="#333B5B"></path>
                                <rect id="Rectangle" fill-rule="nonzero" x="0.5" y="0.775836101" width="25" height="25"></rect>
                            </g>
                        </g>
                    </g>
                </g>
            </g>
        </g>
    </g>
</svg>