<?xml version="1.0" encoding="UTF-8"?>
<svg width="24px" height="23px" viewBox="0 0 24 23" version="1.1" xmlns="http://www.w3.org/2000/svg" xmlns:xlink="http://www.w3.org/1999/xlink">
    <!-- Generator: sketchtool 52.6 (67491) - http://www.bohemiancoding.com/sketch -->
    <title>5F4779A1-5BC1-4536-B8CA-DDAD86224624</title>
    <desc>Created with sketchtool.</desc>
    <g id="iphone-UI" stroke="none" stroke-width="1" fill="none" fill-rule="evenodd">
        <g id="05a---Add-Features" transform="translate(-137.000000, -645.000000)" fill-rule="nonzero">
            <g id="Group-15" transform="translate(126.000000, 209.000000)">
                <g id="Categories-Column" transform="translate(0.000000, 14.000000)">
                    <g id="Categories" transform="translate(0.000000, 52.000000)">
                        <g id="Blockchain" transform="translate(10.000000, 369.000000)">
                            <g id="Icon_Blockchain">
                                <rect id="Rectangle" x="0.5" y="0.125055303" width="25" height="25"></rect>
                                <path d="M5.67876411,9.27173387 L2.32544268,12.6250553 L5.67876411,15.9783767 L9.03208554,12.6250553 L5.67876411,9.27173387 Z" id="Rectangle" stroke="#333B5B"></path>
                                <path d="M7.78501405,14.6201145 L10.9433464,17.7310818" id="Line-4" stroke="#333B5B" stroke-linecap="square"></path>
                                <path d="M15.1691894,17.5016373 L18.0778287,14.5630912" id="Line-6" stroke="#333B5B" stroke-linecap="square"></path>
                                <path d="M18.5324164,10.7361463 L14.9463513,7.13223496" id="Line-7" stroke="#333B5B" stroke-linecap="square"></path>
                                <path d="M11.3046136,6.9463906 L7.48839339,10.7626108" id="Line-8" stroke="#333B5B" stroke-linecap="square"></path>
                                <path d="M20.3305999,9.27173387 L16.9772785,12.6250553 L20.3305999,15.9783767 L23.6839213,12.6250553 L20.3305999,9.27173387 Z" id="Rectangle-Copy-6" stroke="#333B5B"></path>
                                <path d="M13.0007114,1.72549812 L9.64739001,5.07881955 L13.0007114,8.43214098 L16.3540329,5.07881955 L13.0007114,1.72549812 Z" id="Rectangle-Copy-5" stroke="#333B5B"></path>
                                <path d="M13.0007114,16.0243768 L9.64739001,19.3776982 L13.0007114,22.7310196 L16.3540329,19.3776982 L13.0007114,16.0243768 Z" id="Rectangle-Copy-4" stroke="#333B5B"></path>
                            </g>
                        </g>
                    </g>
                </g>
            </g>
        </g>
    </g>
</svg>