<?xml version="1.0" encoding="UTF-8"?>
<svg width="18px" height="18px" viewBox="0 0 18 18" version="1.1" xmlns="http://www.w3.org/2000/svg" xmlns:xlink="http://www.w3.org/1999/xlink">
    <!-- Generator: sketchtool 52.6 (67491) - http://www.bohemiancoding.com/sketch -->
    <title>605B3C3F-D19D-4020-B089-4FEC9973434D</title>
    <desc>Created with sketchtool.</desc>
    <g id="📱-UI" stroke="none" stroke-width="1" fill="none" fill-rule="evenodd">
        <g id="05a---Add-Features" transform="translate(-140.000000, -737.000000)">
            <g id="Group-15" transform="translate(126.000000, 209.000000)">
                <g id="Categories-Column" transform="translate(0.000000, 14.000000)">
                    <g id="Categories" transform="translate(0.000000, 52.000000)">
                        <g id="CRM/CMS" transform="translate(10.000000, 458.000000)">
                            <g id="Icon_CRM/CSS">
                                <rect id="Rectangle" fill-rule="nonzero" x="0.5" y="0.266372224" width="25" height="25"></rect>
                                <path d="M18.1986426,10.5210813 L18.2402608,10.5833 C18.3555487,10.869492 18.536754,11.0899113 18.7913267,11.2551806 C19.0511084,11.4238315 19.3176573,11.5051976 19.6015927,11.5051976 L19.7626551,11.5051976 C20.1143806,11.5051976 20.4244736,11.6206715 20.6635114,11.8506674 C20.9093633,12.0858879 21.0331218,12.3994539 21.0331218,12.7578545 C21.0331218,13.1298832 20.9048028,13.4526754 20.6472868,13.6900707 C20.398267,13.9184463 20.0712727,14.0275469 19.691416,14.0275469 C19.4035982,14.0275469 19.1303446,14.1080266 18.8629725,14.2746826 C18.6073932,14.4330617 18.4262695,14.6487319 18.3158418,14.9204726 C18.2042641,15.2178121 18.1767726,15.5178405 18.2323205,15.8293919 C18.2865683,16.1336512 18.4347078,16.4228758 18.6937152,16.7118409 C18.788418,16.8230137 18.8668889,16.9384436 18.9331094,17.0675428 C19.0085206,17.2226336 19.0461695,17.392917 19.0461695,17.5726907 C19.0461695,17.7645582 19.0092793,17.9419017 18.9289993,18.1039068 C18.8625001,18.234487 18.7753498,18.3537609 18.666647,18.4636349 C18.556461,18.5738209 18.4343555,18.6627356 18.3069188,18.7252129 C18.1482995,18.8059912 17.9699702,18.8431574 17.7764771,18.8431574 C17.5735425,18.8431574 17.3866027,18.799004 17.2237556,18.7055151 C17.1046592,18.637619 16.9756046,18.5388001 16.813961,18.3920626 C16.5729631,18.1516656 16.312429,18.0103638 16.0189444,17.9573081 C15.9436922,17.9432321 15.8684809,17.9364071 15.7902991,17.9364071 C15.5850587,17.9364071 15.3811987,17.9867395 15.1354537,18.108162 C14.8514508,18.2231429 14.6363883,18.4038736 14.4776947,18.6599604 C14.3111853,18.9286596 14.2305589,19.2017724 14.2305589,19.4884039 L14.2305589,19.6316565 C14.2305589,20.0001325 14.1083702,20.319931 13.8609485,20.5566534 C13.6210026,20.7862232 13.3112984,20.9013489 12.9608666,20.9013489 C12.606332,20.9013489 12.2950678,20.7839219 12.0624019,20.5499228 C11.8243146,20.313173 11.708984,19.9968282 11.708984,19.6316565 L11.708984,19.559643 C11.708984,19.2502403 11.6207809,18.9822922 11.4401517,18.7393571 C11.2534114,18.4885916 11.0179634,18.3113507 10.726235,18.2018786 L10.6178482,18.1452311 C10.5681752,18.1109407 10.5201267,18.0934363 10.4673546,18.088865 C10.3353993,18.0781659 10.1994017,18.0726907 10.0609693,18.0726907 C9.86598736,18.0726907 9.67179888,18.1129475 9.47508136,18.1949621 C9.277805,18.2775567 9.10888093,18.3903676 8.96330405,18.536529 C8.71592984,18.7826725 8.41131796,18.9143965 8.07324259,18.9143965 C7.73480215,18.9143965 7.429774,18.7823497 7.18307268,18.5356484 C7.06709702,18.4196727 6.97702596,18.289281 6.91709618,18.1485374 C6.85121762,17.9971569 6.82213434,17.8296883 6.82213434,17.6447042 C6.82213434,17.4653452 6.85757258,17.2951748 6.93149384,17.1363875 C7.00193493,16.9863741 7.11579925,16.8388431 7.2721216,16.6825208 C7.49938577,16.4552566 7.63551293,16.2006589 7.68901816,15.9078185 C7.74103669,15.6231149 7.69808723,15.345606 7.53790371,15.0218174 C7.42147941,14.7348315 7.24031796,14.5144349 6.9863795,14.3495774 C6.72590015,14.1804735 6.45923569,14.098786 6.1761135,14.098786 L6.01505112,14.098786 C5.66308222,14.098786 5.35317269,13.9840287 5.11419482,13.7540905 C4.86834293,13.51887 4.74458441,13.205304 4.74458441,12.8469034 C4.74458441,12.4784274 4.86677311,12.1586289 5.11419482,11.9219065 C5.35425159,11.6922306 5.66399442,11.577211 6.01505112,11.577211 L6.08629025,11.577211 C6.39666431,11.577211 6.66497824,11.4892119 6.90702981,11.3088157 C7.16129642,11.1199148 7.3459182,10.8804094 7.46198195,10.5941492 C7.57345312,10.2976961 7.60093901,9.99772851 7.54538567,9.68554274 C7.49121035,9.38168985 7.34325047,9.09296572 7.12509161,8.84591022 C6.8680689,8.60816421 6.73153675,8.29943852 6.73153675,7.95076171 C6.73153675,7.60264437 6.86823312,7.29320731 7.11197872,7.0681924 C7.35376769,6.82765623 7.6540252,6.69887912 7.98729102,6.69887912 C7.9989061,6.69887912 7.9989061,6.69887912 8.02532949,6.69909845 C8.3713676,6.70935144 8.68724815,6.86530408 8.96470868,7.14164562 C9.15615904,7.3336624 9.38915924,7.45660361 9.67643116,7.51417576 C9.80674606,7.54061647 9.93058621,7.55374871 10.0478055,7.55374871 C10.2095601,7.55374871 10.3673876,7.52985333 10.5212636,7.48232407 L10.6234289,7.46690505 L10.7139391,7.40690511 C10.9995859,7.29102408 11.215985,7.1115335 11.3741771,6.86082472 C11.5392125,6.59927048 11.6191607,6.33061548 11.6191607,6.04434056 L11.6191607,5.88327818 C11.6191607,5.52606398 11.7425863,5.21216282 11.9879968,4.97609109 C12.2280536,4.74641516 12.5377964,4.63139559 12.8888531,4.63139559 C13.2437372,4.63139559 13.5575503,4.75305148 13.7976071,4.99310827 C14.0430824,5.2385835 14.1585455,5.57529893 14.1585455,5.97310143 C14.1585455,6.29346877 14.2379992,6.56704745 14.3968492,6.80560917 C14.5551372,7.04332676 14.7734034,7.21810969 15.0644092,7.33592699 C15.2599093,7.41555318 15.4545813,7.4546334 15.6509182,7.4546334 C15.7470415,7.4546334 15.8477285,7.44447638 15.9532019,7.42424079 C16.2613227,7.36464295 16.5522972,7.21341478 16.8135194,6.98006061 C16.929495,6.86408494 17.0598867,6.77401389 17.2006304,6.7140841 C17.3521623,6.64813966 17.5197007,6.61834793 17.7044636,6.61834793 C17.8771775,6.61834793 18.0394675,6.64896247 18.1884465,6.71320144 C18.3209499,6.77016552 18.4473426,6.85139705 18.6081299,6.99409301 C18.8401717,7.24494907 18.9569164,7.55407597 18.9468348,7.89433089 C18.9365701,8.24076368 18.7808113,8.55718724 18.5136396,8.82417104 C18.3164423,9.03067555 18.1904883,9.2736995 18.1315686,9.56416878 C18.0711084,9.85928633 18.0867755,10.1320098 18.1768686,10.3918267 L18.1986426,10.5210813 Z M10.6234289,7.46690505 L10.6377767,7.46473964 C10.6284972,7.4677738 10.6197794,7.47112775 10.6116151,7.47473648 L10.6234289,7.46690505 Z" id="Path" stroke="#333B5B"></path>
                                <path d="M14.7773116,14.6705852 C15.3010178,14.146879 15.5641693,13.5063128 15.5641693,12.7506178 C15.5641693,12.0165635 15.3010178,11.3872505 14.7773116,10.8626786 C14.2527398,10.3381068 13.6234268,10.0749553 12.8885069,10.0749553 C12.153587,10.0749553 11.5242739,10.3381068 11.0005677,10.8626786 C10.4751303,11.3872505 10.21371,12.0165635 10.21371,12.7506178 C10.21371,13.5063128 10.4751303,14.146879 11.0005677,14.6705852 C11.5242739,15.195157 12.153587,15.4574429 12.8885069,15.4574429 C13.6234268,15.4574429 14.2527398,15.195157 14.7773116,14.6705852 Z" id="Stroke-4" stroke="#333B5B"></path>
                            </g>
                        </g>
                    </g>
                </g>
            </g>
        </g>
    </g>
</svg>