<?xml version="1.0" encoding="UTF-8"?>
<svg width="22px" height="16px" viewBox="0 0 22 16" version="1.1" xmlns="http://www.w3.org/2000/svg" xmlns:xlink="http://www.w3.org/1999/xlink">
    <!-- Generator: sketchtool 52.6 (67491) - http://www.bohemiancoding.com/sketch -->
    <title>B8C32AAB-92C7-4564-8B0E-DAEEE7F9DCC0</title>
    <desc>Created with sketchtool.</desc>
    <g id="iphone-UI" stroke="none" stroke-width="1" fill="none" fill-rule="evenodd">
        <g id="05a---Add-Features" transform="translate(-138.000000, -350.000000)">
            <g id="Group-15" transform="translate(126.000000, 209.000000)">
                <g id="Categories-Column" transform="translate(0.000000, 14.000000)">
                    <g id="Categories" transform="translate(0.000000, 52.000000)">
                        <g id="Social" transform="translate(10.000000, 71.000000)">
                            <g id="Icon_Social">
                                <rect id="Rectangle" fill-rule="nonzero" x="0.655016823" y="0.161547603" width="25" height="25"></rect>
                                <path d="M3,20 L3,16.943743 C3,15.5763089 4.47662735,14 5.94016753,14 L13.0139039,14 C14.5994264,14 16,15.4220201 16,17.4247122 L16,20" id="Stroke-1" stroke="#333C5A" stroke-linecap="round" stroke-linejoin="round"></path>
                                <path d="M13,8.5 C13,10.4329545 11.4329006,12 9.49987947,12 C7.56685836,12 6,10.4329545 6,8.5 C6,6.56704545 7.56685836,5 9.49987947,5 C11.4329006,5 13,6.56704545 13,8.5 Z" id="Stroke-3" stroke="#333C5A" stroke-linecap="round" stroke-linejoin="round"></path>
                                <path d="M16,16 L20.9221735,16 C22.0255277,16 23,16.9481385 23,18.2832136 L23,20" id="Stroke-5" stroke="#333C5A" stroke-linecap="round" stroke-linejoin="round"></path>
                                <path d="M21,11.5001212 C21,12.8807851 19.8807851,14 18.5001212,14 C17.1192149,14 16,12.8807851 16,11.5001212 C16,10.1194572 17.1192149,9 18.5001212,9 C19.8807851,9 21,10.1194572 21,11.5001212 Z" id="Stroke-7" stroke="#333C5A" stroke-linecap="round" stroke-linejoin="round"></path>
                            </g>
                        </g>
                    </g>
                </g>
            </g>
        </g>
    </g>
</svg>