<?xml version="1.0" encoding="UTF-8"?>
<svg width="20px" height="17px" viewBox="0 0 20 17" version="1.1" xmlns="http://www.w3.org/2000/svg" xmlns:xlink="http://www.w3.org/1999/xlink">
    <!-- Generator: sketchtool 52.6 (67491) - http://www.bohemiancoding.com/sketch -->
    <title>056F66CE-C65D-4942-A8E6-F5E110BC903B</title>
    <desc>Created with sketchtool.</desc>
    <g id="iphone-UI" stroke="none" stroke-width="1" fill="none" fill-rule="evenodd">
        <g id="05a---Add-Features" transform="translate(-139.000000, -489.000000)">
            <g id="Group-15" transform="translate(126.000000, 209.000000)">
                <g id="Categories-Column" transform="translate(0.000000, 14.000000)">
                    <g id="Categories" transform="translate(0.000000, 52.000000)">
                        <g id="Market" transform="translate(10.000000, 209.000000)">
                            <g id="Icon_MarketPlace">
                                <rect id="Rectangle" fill-rule="nonzero" x="0.5" y="0.975998633" width="25" height="25"></rect>
                                <polyline id="Stroke-1" stroke="#333B5B" stroke-linecap="round" stroke-linejoin="round" points="5.5 14 5.5 21 20.5 21 20.5 14"></polyline>
                                <path d="M7.30020827,11.4834055 C7.30020827,11.4834055 7.30020827,14 5.40010414,14 C3.5,14 3.5,11.4834055 3.5,11.4834055 L5.40010414,6 L20.6004165,6 L22.4999999,11.4834055 C22.4999999,11.4834055 22.5041657,14 20.6004165,14 C18.6961466,14 18.7003124,11.4834055 18.7003124,11.4834055 C18.7003124,11.4834055 18.8992271,14 16.8002082,14 C14.7006687,14 14.9001041,11.4834055 14.9001041,11.4834055 C14.9001041,11.4834055 14.9115599,14 13,14 C11.08844,14 11.0998958,11.4834055 11.0998958,11.4834055 C11.0998958,11.4834055 11.1019787,14 9.20031241,14 C7.2981254,14 7.30020827,11.4834055 7.30020827,11.4834055 Z" id="Stroke-3" stroke="#333B5B" stroke-linecap="round" stroke-linejoin="round"></path>
                            </g>
                        </g>
                    </g>
                </g>
            </g>
        </g>
    </g>
</svg>