<?xml version="1.0" encoding="UTF-8"?>
<svg width="22px" height="16px" viewBox="0 0 22 16" version="1.1" xmlns="http://www.w3.org/2000/svg" xmlns:xlink="http://www.w3.org/1999/xlink">
    <!-- Generator: sketchtool 52.6 (67491) - http://www.bohemiancoding.com/sketch -->
    <title>F45CD103-DF9E-44EF-A2EC-7D8671488665</title>
    <desc>Created with sketchtool.</desc>
    <g id="iphone-UI" stroke="none" stroke-width="1" fill="none" fill-rule="evenodd">
        <g id="05a---Add-Features" transform="translate(-138.000000, -703.000000)">
            <g id="Group-15" transform="translate(126.000000, 209.000000)">
                <g id="Categories-Column" transform="translate(0.000000, 14.000000)">
                    <g id="Categories" transform="translate(0.000000, 52.000000)">
                        <g id="Video-&amp;-Image" transform="translate(10.000000, 423.000000)">
                            <g id="Icon_VideoImage">
                                <path d="M9.81713409,8.38684163 C10.4190791,8.38684163 10.9308667,8.59191729 11.3524968,9.00244216 C11.7741268,9.41296704 11.9843664,9.91090121 11.9843664,10.4973653 C11.9843664,11.0834559 11.7741268,11.5817636 11.3524968,11.9922885 C10.9308667,12.4024398 10.4190791,12.607889 9.81713409,12.607889 C9.21518906,12.607889 8.7034015,12.4024398 8.28177142,11.9922885 C7.86014134,11.5817636 7.64951813,11.0834559 7.64951813,10.4973653 C7.64951813,9.91090121 7.86014134,9.41296704 8.28177142,9.00244216 C8.7034015,8.59191729 9.21518906,8.38684163 9.81713409,8.38684163 Z" id="Stroke-1" stroke="#333B5B"></path>
                                <path d="M6.09664156,17.6644296 L8.51585431,15.3089359 C8.68137408,15.1477757 8.86741561,15.0675232 9.07431532,15.0675232 C9.28087861,15.0675232 9.46692015,15.1277945 9.63243992,15.2486646 L12.0516527,17.6644296 L17.5101044,12.3494191 C17.6342443,12.2288765 17.799764,12.1682776 18.0063273,12.1682776 C18.2132271,12.1682776 18.3992686,12.2288765 18.5647884,12.3494191 L19.9491661,13.7579329" id="Stroke-3" stroke="#333B5B"></path>
                                <polygon id="Stroke-5" stroke="#333B5B" points="19.9491661 19.7415527 6.10139881 19.7415527 6.10139881 6.25851827 19.9491661 6.25851827 19.9491661 12.9998708"></polygon>
                                <polygon id="Stroke-13" fill="#333B5B" points="21.7386027 7.46815634 23.5623941 7.46815634 23.5623941 5.74459394 21.7386027 5.74459394"></polygon>
                                <polygon id="Stroke-13-Copy" fill="#333B5B" points="2.48341355 7.46815634 4.30720497 7.46815634 4.30720497 5.74459394 2.48341355 5.74459394"></polygon>
                                <polygon id="Stroke-14" fill="#333B5B" points="21.7386027 11.7324148 23.5623941 11.7324148 23.5623941 10.0088524 21.7386027 10.0088524"></polygon>
                                <polygon id="Stroke-14-Copy" fill="#333B5B" points="2.48341355 11.7324148 4.30720497 11.7324148 4.30720497 10.0088524 2.48341355 10.0088524"></polygon>
                                <polygon id="Stroke-15" fill="#333B5B" points="21.7386027 15.9966733 23.5623941 15.9966733 23.5623941 14.2731109 21.7386027 14.2731109"></polygon>
                                <polygon id="Stroke-15-Copy" fill="#333B5B" points="2.48341355 15.9966733 4.30720497 15.9966733 4.30720497 14.2731109 2.48341355 14.2731109"></polygon>
                                <polygon id="Stroke-16" fill="#333B5B" points="21.7386027 20.2609318 23.5623941 20.2609318 23.5623941 18.5373694 21.7386027 18.5373694"></polygon>
                                <polygon id="Stroke-16-Copy" fill="#333B5B" points="2.48341355 20.2609318 4.30720497 20.2609318 4.30720497 18.5373694 2.48341355 18.5373694"></polygon>
                                <rect id="Rectangle" fill-rule="nonzero" x="0.494582156" y="0.494582156" width="25" height="25"></rect>
                            </g>
                        </g>
                    </g>
                </g>
            </g>
        </g>
    </g>
</svg>