
<svg width="16px" height="16px" viewBox="0 0 16 16" version="1.1" xmlns="http://www.w3.org/2000/svg" xmlns:xlink="http://www.w3.org/1999/xlink">
    <!-- Generator: Sketch 51.3 (57544) - http://www.bohemiancoding.com/sketch -->
    <desc>Created with Sketch.</desc>
    <defs></defs>
    <g id="📱-UI" stroke="none" stroke-width="1" fill="none" fill-rule="evenodd">
        <g id="02c---Dating-Selected" transform="translate(-606.000000, -219.000000)" fill="#6B7C8E" fill-rule="nonzero" stroke="#FAF9F9" stroke-width="0.5">
            <g id="Group-2" transform="translate(584.000000, 203.000000)">
                <path d="M33.9436382,26.8661422 L37.3958909,30.3183948 C37.6934332,30.6159372 37.6934332,31.0983486 37.3958909,31.3958909 C37.0983486,31.6934332 36.6159372,31.6934332 36.3183948,31.3958909 L32.8661422,27.9436382 C31.763443,28.8139401 30.3709483,29.3333333 28.8571429,29.3333333 C25.2804416,29.3333333 22.3809524,26.4338441 22.3809524,22.8571429 C22.3809524,19.2804416 25.2804416,16.3809524 28.8571429,16.3809524 C32.4338441,16.3809524 35.3333333,19.2804416 35.3333333,22.8571429 C35.3333333,24.3709483 34.8139401,25.763443 33.9436382,26.8661422 Z M32.4074354,26.3098997 C33.2751369,25.4178418 33.8095238,24.1998987 33.8095238,22.8571429 C33.8095238,20.1220184 31.5922673,17.9047619 28.8571429,17.9047619 C26.1220184,17.9047619 23.9047619,20.1220184 23.9047619,22.8571429 C23.9047619,25.5922673 26.1220184,27.8095238 28.8571429,27.8095238 C30.1998987,27.8095238 31.4178418,27.2751369 32.3098997,26.4074354 C32.3245217,26.3899309 32.3400518,26.3729284 32.3564901,26.3564901 C32.3729284,26.3400518 32.3899309,26.3245217 32.4074354,26.3098997 Z" id="Combined-Shape"></path>
            </g>
        </g>
    </g>
</svg>
